<!-- Generator: Adobe Illustrator 19.2.1, SVG Export Plug-In  -->
<svg version="1.1"
	 xmlns="http://www.w3.org/2000/svg" xmlns:xlink="http://www.w3.org/1999/xlink" xmlns:a="http://ns.adobe.com/AdobeSVGViewerExtensions/3.0/"
	 x="0px" y="0px" width="472.7px" height="512px" viewBox="0 0 472.7 512" style="enable-background:new 0 0 472.7 512;"
	 xml:space="preserve">
<defs>
</defs>
<path d="M0.4,512C0.3,494.2,0,476.4,0,458.6c0-71.1,0-142.3,0-213.4c0-24.6,0-49.3,0-73.9c0-1.5,0-3,0-5.4c2.2,0,4.1,0,6,0
	c27.7,0,55.3-0.1,83,0.1c3.6,0,6.2-1.1,8.7-3.7c30.3-30.5,60.8-60.8,91.1-91.3c1.3-1.3,2.3-2.8,3.4-4.1c4.3,4.5,8,8.4,12.4,13
	c-28,28-56.6,56.6-85.8,85.7c78.6,0,156.4,0,235,0c-29.2-29.1-57.9-57.8-86.6-86.4c4.5-4.4,8.3-8.1,12.8-12.4
	c5.9,6,11.8,12.3,17.9,18.4c25.7,25.7,51.4,51.4,77,77.1c2.5,2.6,5.1,3.7,8.7,3.6c27.5-0.1,55-0.1,82.5-0.1c2,0,3.9,0,6.2,0
	c0.1,2,0.3,3.4,0.3,4.9c0,100.1,0,200.3,0,300.4c0,13.6-0.2,27.3-0.3,40.9C315.1,512,157.7,512,0.4,512z M455.5,240.2
	c-146.2,0-292,0-438.1,0c0,85,0,169.7,0,254.4c146.3,0,292.2,0,438.1,0C455.5,409.6,455.5,325.1,455.5,240.2z M17.3,222.1
	c146.4,0,292.1,0,438.1,0c0-13.2,0-26,0-39c-146.2,0-292.1,0-438.1,0C17.3,196.3,17.3,209,17.3,222.1z"/>
<path d="M242.4,0c1.5,0.6,3,1.2,4.5,1.7c17.2,5.5,27.3,22.1,24.4,40.2c-2.6,16.3-17.6,29-34.4,29.1c-17.4,0.1-32.7-12.4-35.4-29.1
	c-2.9-17.8,7-34.4,23.9-40c1.7-0.6,3.4-1.2,5-1.9C234.4,0,238.4,0,242.4,0z M254.8,35.7c0.1-10.2-8-18.5-18.1-18.7
	c-10.1-0.2-18.5,7.9-18.8,18.1c-0.3,10.4,8,18.9,18.4,18.9C246.5,54.1,254.7,45.9,254.8,35.7z"/>
<path d="M438.4,257.3c0,73.5,0,146.6,0,220.1c-134.6,0-269,0-403.7,0c0-73.3,0-146.5,0-220.1C169,257.3,303.4,257.3,438.4,257.3z
	 M421.2,274.2c-123.5,0-246.6,0-369.8,0c0,62.2,0,124.1,0,186.3c123.3,0,246.4,0,369.8,0C421.2,398.4,421.2,336.5,421.2,274.2z"/>
<path d="M34.5,210.7c0-5.4,0-10.6,0-16.2c5.4,0,10.8,0,16.4,0c0,5.4,0,10.6,0,16.2C45.5,210.7,40.1,210.7,34.5,210.7z"/>
<path d="M68.7,210.7c0-5.5,0-10.8,0-16.3c5.5,0,10.8,0,16.3,0c0,5.4,0,10.6,0,16.3C79.8,210.7,74.4,210.7,68.7,210.7z"/>
<path d="M119.2,194.5c0,5.4,0,10.7,0,16.3c-5.5,0-10.8,0-16.4,0c0-5.4,0-10.7,0-16.3C108.2,194.5,113.5,194.5,119.2,194.5z"/>
<path d="M199.8,367.1c0-6.5-0.1-13,0-19.5c0.2-18.5,12.4-30.7,30.8-30.8c3.8,0,7.7,0,11.5,0c17.8,0,30.5,12,30.9,29.7
	c0.3,13.8,0.3,27.7,0,41.5c-0.4,17.7-13.1,29.8-30.8,29.9c-3.8,0-7.7,0-11.5,0c-18-0.1-30.5-12.3-30.8-30.3
	C199.7,380.8,199.8,373.9,199.8,367.1z M216.8,367.5c0,6.5-0.1,13,0,19.5c0.1,9,5,13.9,13.9,14c4.2,0.1,8.3,0.1,12.5,0
	c7-0.2,12.4-4.8,12.5-11.7c0.4-14.5,0.4-29,0-43.5c-0.2-7.2-5.2-11.6-12.3-11.9c-4.2-0.2-8.3-0.1-12.5,0
	c-9.4,0.1-14.1,4.7-14.2,14.2C216.7,354.5,216.8,361,216.8,367.5z"/>
<path d="M360,372.7c3.1,0.2,5.4,0.3,8,0.4c0,5.5,0,10.9,0,16.7c-2.6,0-5,0-8,0c0,9.5,0,18.6,0,27.8c-5.9,0-11.1,0-16.9,0
	c0-9.2,0-18.1,0-27.5c-2.2-0.1-4-0.3-5.7-0.3c-10.8,0-21.6,0-32.5,0c-4,0-7.2-1.4-8.9-5.2c-1.6-3.6-0.6-6.8,1.9-9.7
	c15.4-18.1,30.9-36.2,46.2-54.4c2.8-3.3,6.1-4.7,10.2-3.3c4.1,1.4,5.6,4.9,5.6,9.1c0,13.3,0,26.6,0,39.9
	C360,368.3,360,370.3,360,372.7z M342.7,348.6c-7.3,8.6-13.6,16-20.3,24c7.5,0,13.8,0,20.3,0C342.7,364.9,342.7,357.5,342.7,348.6z"
	/>
<path d="M169.2,372.7c2.9,0.2,5.2,0.3,7.9,0.5c0,5.4,0,10.8,0,16.5c-2.5,0.2-4.9,0.3-7.8,0.5c0,9.1,0,18.1,0,27.4
	c-5.8,0-11.2,0-17.1,0c0-9.1,0-18,0-27.6c-3.1,0-5.7,0-8.3,0c-9.8,0-19.7-0.1-29.5,0c-4.2,0-7.5-1.3-9.3-5.3
	c-1.7-3.9-0.2-7.1,2.3-10c15.2-17.9,30.5-35.8,45.6-53.7c2.9-3.4,6.3-5.1,10.6-3.5c4.1,1.5,5.5,5,5.5,9.2c0,13.3,0,26.7,0,40
	C169.2,368.5,169.2,370.5,169.2,372.7z M152,348.5c-7.3,8.7-13.7,16.1-20.4,24c7.4,0,13.8,0,20.4,0C152,364.8,152,357.4,152,348.5z"
	/>
<path d="M69.7,389.6c0-5.6,0-10.7,0-16.2c5.4,0,10.7,0,16.4,0c0,5.3,0,10.6,0,16.2C80.7,389.6,75.5,389.6,69.7,389.6z"/>
<path d="M403,389.7c-5.6,0-10.7,0-16.3,0c0-5.4,0-10.8,0-16.5c5.3,0,10.6,0,16.3,0C403,378.7,403,384,403,389.7z"/>
</svg>
