<!-- Generator: Adobe Illustrator 19.2.1, SVG Export Plug-In  -->
<svg version="1.1"
	 xmlns="http://www.w3.org/2000/svg" xmlns:xlink="http://www.w3.org/1999/xlink" xmlns:a="http://ns.adobe.com/AdobeSVGViewerExtensions/3.0/"
	 x="0px" y="0px" width="26.7px" height="40px" viewBox="0 0 26.7 40" style="enable-background:new 0 0 26.7 40;"
	 xml:space="preserve">
<path d="M20,13.3c0-1.8-0.7-3.4-2-4.7s-2.9-2-4.7-2s-3.4,0.7-4.7,2s-2,2.9-2,4.7s0.7,3.4,2,4.7s2.9,2,4.7,2s3.4-0.7,4.7-2
	S20,15.2,20,13.3z M26.7,13.3c0,1.9-0.3,3.4-0.9,4.7l-9.5,20.2c-0.3,0.6-0.7,1-1.2,1.4S14,40,13.3,40s-1.2-0.2-1.8-0.5
	s-1-0.8-1.2-1.4L0.9,18C0.3,16.8,0,15.2,0,13.3c0-3.7,1.3-6.8,3.9-9.4S9.7,0,13.3,0s6.8,1.3,9.4,3.9S26.7,9.7,26.7,13.3z"/>
</svg>
