<!-- Generator: Adobe Illustrator 19.2.1, SVG Export Plug-In  -->
<svg version="1.1"
	 xmlns="http://www.w3.org/2000/svg" xmlns:xlink="http://www.w3.org/1999/xlink" xmlns:a="http://ns.adobe.com/AdobeSVGViewerExtensions/3.0/"
	 x="0px" y="0px" width="40px" height="36.7px" viewBox="0 0 40 36.7" style="enable-background:new 0 0 40 36.7;"
	 xml:space="preserve">
<g id="miu_1_">
	<g id="Artboard-1_1_" transform="translate(-395.000000, -119.000000)">
		<g id="slice_1_" transform="translate(215.000000, 119.000000)">
		</g>
		<path id="circle-backup-time-history-recent-time-machine-glyph_1_" d="M398.6,134c1.6-8.5,9-15,18-15c10.1,0,18.3,8.2,18.3,18.3
			s-8.2,18.3-18.3,18.3c-7.1,0-13.3-4.1-16.3-10h3.9c2.7,4,7.3,6.7,12.5,6.7c8.3,0,15-6.7,15-15c0-8.3-6.7-15-15-15
			c-7.1,0-13.1,5-14.6,11.7H398.6L398.6,134z M415.8,137.9l8.7,5.1l0.8-1.4l-7.9-4.7v-11.2h-1.7V137.9z M400,140.7l5-6.7h-10
			L400,140.7z"/>
	</g>
</g>
</svg>
